<?xml version="1.0" encoding="UTF-8"?>
<svg version="1.1" xmlns="http://www.w3.org/2000/svg" width="600" height="600">
<path d="M0 0 C198 0 396 0 600 0 C600 198 600 396 600 600 C402 600 204 600 0 600 C0 402 0 204 0 0 Z " fill="#FEFEFE" transform="translate(0,0)"/>
<path d="M0 0 C2.72688964 2.16911676 4.50934914 3.71281389 5.0859375 7.24609375 C5.16416385 12.01007839 4.66790411 15.80639316 2.93359375 20.25390625 C1.03398935 25.74244824 -0.0434456 31.12534928 -0.92578125 36.84375 C-1.06123352 37.71810196 -1.19668579 38.59245392 -1.33624268 39.49330139 C-1.88967303 43.12457804 -2.42902347 46.75761068 -2.95092773 50.39355469 C-4.9260039 63.9982642 -8.28367767 76.36381733 -13.25 89.1875 C-9.73778668 85.8259213 -7.43627386 82.34340284 -5.1875 78.0625 C-4.84912109 77.44890625 -4.51074219 76.8353125 -4.16210938 76.203125 C0.84953688 66.78084228 2.55384179 56.60857195 4.375 46.1875 C4.80200308 43.77035758 5.23155585 41.35366372 5.6640625 38.9375 C5.8492041 37.88046875 6.0343457 36.8234375 6.22509766 35.734375 C6.75 33.1875 6.75 33.1875 7.75 31.1875 C13.24121875 30.94312639 17.75504506 31.71773811 23 33.3125 C23.74580322 33.5384082 24.49160645 33.76431641 25.26000977 33.99707031 C39.60476631 38.52911441 52.43480532 47.41706618 59.67871094 60.91845703 C62.51126129 66.37767968 62.51126129 66.37767968 63.68408203 68.82080078 C66.51210407 74.46657182 69.98055323 78.02392409 75.9296875 80.5234375 C77.14914062 80.86632812 78.36859375 81.20921875 79.625 81.5625 C80.31972412 81.7589209 81.01444824 81.9553418 81.73022461 82.15771484 C91.22374868 84.7378089 100.89796965 86.69192623 110.52880859 88.68896484 C128.60410613 92.46865919 128.60410613 92.46865919 131.75 97.1875 C131.56311797 102.04643267 130.32664083 104.99814024 127.77734375 109.0625 C126.47156786 111.76342047 126.00712865 114.36882897 125.4375 117.3125 C123.1114205 128.18004349 117.78007355 138.44565937 108.75 145.1875 C95.97253495 152.99013235 84.06841776 153.52886001 69.53100586 153.56835938 C58.84749199 153.61705915 50.77563384 154.38480043 42.75 162.1875 C38.31308705 168.58804672 37.59992978 173.81215443 37.6875 181.4375 C37.69426758 182.55511719 37.69426758 182.55511719 37.70117188 183.6953125 C37.71290754 185.5260764 37.7308415 187.35679873 37.75 189.1875 C28.068201 182.21660472 24.95039092 171.87696516 20.90234375 161.0390625 C19.52349569 157.62699781 17.99875607 155.08912073 15.75 152.1875 C15.21375 151.383125 14.6775 150.57875 14.125 149.75 C8.49357994 143.67399414 1.20255681 139.63775778 -6.25 136.1875 C-4.77490648 130.86216239 -2.28104836 126.71275655 0.6875 122.125 C1.57193428 120.73848513 2.45605629 119.35177101 3.33984375 117.96484375 C3.75564697 117.31394775 4.1714502 116.66305176 4.59985352 115.99243164 C7.14184517 112.00326918 9.07363808 108.92203346 9.75 104.1875 C5.31462557 106.40518721 1.83693326 108.88407643 -1.8125 112.25 C-5.92329051 116.01560963 -10.07771424 119.69956717 -14.375 123.25 C-14.93646729 123.73927979 -15.49793457 124.22855957 -16.07641602 124.73266602 C-20.61461787 128.41686619 -23.44882362 128.64125538 -29.25 128.1875 C-30.28125 128.22875 -31.3125 128.27 -32.375 128.3125 C-35.86776027 128.16064086 -38.11369667 127.78523943 -41.25 126.1875 C-44.54591962 122.04323017 -46.36862163 116.92535082 -48.40039062 112.08251953 C-51.50053207 105.16777876 -57.08554691 98.90760019 -64.125 96 C-70.37690257 96.37511415 -74.65110623 101.36166271 -78.75 105.75 C-93.7885986 123.7413828 -99.61877225 143.15230734 -98.25 166.1875 C-97.83304558 169.94430141 -97.20565331 173.5327718 -96.25 177.1875 C-96.05921875 177.91710937 -95.8684375 178.64671875 -95.671875 179.3984375 C-95.22782315 181.00336774 -94.74468344 182.59744609 -94.25 184.1875 C-97.4568209 181.49219655 -99.06451583 178.00251223 -100.875 174.3125 C-101.18695313 173.70019531 -101.49890625 173.08789062 -101.8203125 172.45703125 C-104.90931063 166.23909105 -105.44173063 160.67649062 -105.8125 153.875 C-105.85568359 153.13443359 -105.89886719 152.39386719 -105.94335938 151.63085938 C-106.04870432 149.81658536 -106.14978316 148.0020645 -106.25 146.1875 C-117.72375667 157.38713961 -125.85018957 173.22059576 -131.25 188.1875 C-131.63309326 189.2079541 -131.63309326 189.2079541 -132.02392578 190.24902344 C-136.29114621 202.12279009 -136.7220013 213.95872053 -136.75 226.4375 C-136.75687332 227.5756012 -136.75687332 227.5756012 -136.7638855 228.73669434 C-136.79749296 242.78803066 -135.24889761 256.4305496 -130.125 269.625 C-129.6760437 270.80485474 -129.6760437 270.80485474 -129.21801758 272.00854492 C-122.09179744 290.16703438 -111.76999165 306.12929212 -98.25 320.1875 C-97.55680664 320.92734131 -97.55680664 320.92734131 -96.84960938 321.68212891 C-85.23612326 334.05285085 -72.20751271 344.14217119 -57.25 352.1875 C-61.43167671 353.58139224 -64.42704119 352.12215343 -68.4375 350.75 C-69.23833008 350.47776611 -70.03916016 350.20553223 -70.86425781 349.92504883 C-106.01102838 337.56822072 -132.49585675 312.9011806 -148.93359375 279.796875 C-156.47021606 263.27503285 -160.24918815 246.88816704 -159.92236328 228.73828125 C-159.87476028 225.92332411 -159.88136213 223.11213977 -159.89453125 220.296875 C-159.79500667 188.34791737 -146.79999607 157.32535539 -126.3515625 132.921875 C-121.10679218 126.32438111 -118.91238806 118.90983525 -116.3046875 111.0090332 C-113.3814194 102.24698855 -109.64070942 94.29271254 -105.25 86.1875 C-104.78335938 85.25550781 -104.31671875 84.32351562 -103.8359375 83.36328125 C-97.62679783 71.21733259 -89.2893567 59.84145487 -79.89453125 49.97265625 C-78.17840636 48.27522669 -78.17840636 48.27522669 -77.25 46.1875 C-73.94864698 47.28795101 -73.66342213 47.75404213 -71.75 50.4375 C-67.21325236 55.87039532 -61.12375894 58.81354802 -54.09375 59.4921875 C-51.45750098 59.49898196 -48.87544923 59.41602073 -46.25 59.1875 C-47.0234375 58.85878906 -47.796875 58.53007812 -48.59375 58.19140625 C-57.18080373 54.26984335 -63.45702475 49.7734505 -67.75 41.1875 C-68.65777038 35.74087773 -69.23246155 31.19335899 -66.75 26.125 C-53.76176385 10.86382252 -21.15163184 -11.45713391 0 0 Z " fill="#0E1313" transform="translate(314.25,123.8125)"/>
<path d="M0 0 C0.87785156 -0.00515625 1.75570312 -0.0103125 2.66015625 -0.015625 C4.9375 0.25 4.9375 0.25 6.9375 2.25 C7.28240322 6.30261287 7.23913882 7.79754176 4.9375 11.25 C4.6637068 13.58698675 4.6637068 13.58698675 4.625 16.1875 C4.01987769 24.35665116 0.50927912 31.24376765 -3.1875 38.4375 C-12.59392063 56.75526648 -11.71649104 82.59353927 -5.83740234 101.95068359 C2.58556511 126.94359709 17.20842452 145.75712127 39.9375 159.25 C25.17981059 164.1692298 -0.9310902 150.91047438 -14.0625 144.5 C-25.66356538 138.66553797 -35.68422291 131.25251975 -45.0625 122.25 C-46.23619141 121.15365234 -46.23619141 121.15365234 -47.43359375 120.03515625 C-58.36244959 109.54861498 -70.5871583 92.52296204 -71.3984375 76.7890625 C-71.42213703 75.15116137 -71.43492442 73.51307056 -71.4375 71.875 C-71.46199219 71.06289063 -71.48648437 70.25078125 -71.51171875 69.4140625 C-71.54537463 62.41363967 -69.72981474 57.29381444 -65.09765625 52.0078125 C-64.44667969 51.46898437 -63.79570312 50.93015625 -63.125 50.375 C-62.15240234 49.54355469 -62.15240234 49.54355469 -61.16015625 48.6953125 C-56.55723016 45.52383642 -52.61097975 45.00358356 -47.07421875 44.9765625 C-45.71418458 44.95626672 -44.3541586 44.93541581 -42.99414062 44.9140625 C-40.87468517 44.89154374 -38.75555565 44.8750154 -36.63598633 44.86914062 C-28.53806696 44.83139249 -22.05066275 44.70839774 -15.0625 40.25 C-14.35569092 39.91307129 -13.64888184 39.57614258 -12.9206543 39.22900391 C-10.48086256 37.94355326 -10.17462166 36.75227375 -9.0625 34.25 C-8.381875 33.239375 -7.70125 32.22875 -7 31.1875 C-3.16218337 25.36887479 -3.25081278 19.03399636 -4.0625 12.25 C-6.45795381 9.26753216 -6.45795381 9.26753216 -9.0625 7.25 C-9.0625 4.5625 -9.0625 4.5625 -8.0625 2.25 C-4.81167327 0.08278218 -3.77017847 -0.02221018 0 0 Z " fill="#0E1313" transform="translate(351.0625,321.75)"/>
<path d="M0 0 C5.73738138 2.18020492 8.84113877 7.20764571 11.36328125 12.640625 C12.06155046 14.2365982 12.75278836 15.83566345 13.4375 17.4375 C17.02565279 25.45748329 21.03302788 31.77868773 27.125 38.1875 C24.28011496 40.08409002 21.53869043 41.3909556 18.4375 42.8125 C9.81921871 47.12164065 4.04048482 52.73024503 -0.04296875 61.51171875 C-1.45630428 66.05695273 -1.27721336 70.48607276 -0.875 75.1875 C-10.06199206 66.54091923 -16.74870075 56.15111165 -17.1484375 43.22265625 C-17.42081997 31.84662644 -17.47114969 22.37065762 -11.875 12.1875 C-11.44445312 11.39085937 -11.01390625 10.59421875 -10.5703125 9.7734375 C-5.04087902 0.32875298 -5.04087902 0.32875298 0 0 Z " fill="#0F1414" transform="translate(250.875,229.8125)"/>
<path d="M0 0 C4.37477474 -0.11651725 8.74914827 -0.18736 13.125 -0.25 C14.3625 -0.28351563 15.6 -0.31703125 16.875 -0.3515625 C28.20223525 -0.47336073 28.20223525 -0.47336073 33 4 C34 5 34 5 34.33203125 7.25 C33.87961769 10.99704877 32.30365244 12.32960517 29.6875 15 C24.85079084 19.98469221 22.01633587 24.33058137 20 31 C13.69632197 30.41632611 8.01339937 28.95928381 2 27 C2.165 25.9275 2.33 24.855 2.5 23.75 C2.94201204 20.10340071 3.15921298 16.4848351 3.25 12.8125 C3.27578125 11.82894531 3.3015625 10.84539062 3.328125 9.83203125 C2.94780201 6.54948161 1.79447647 4.73421546 0 2 C0 1.34 0 0.68 0 0 Z " fill="#101414" transform="translate(325,119)"/>
<path d="M0 0 C0.92425781 -0.04898437 1.84851563 -0.09796875 2.80078125 -0.1484375 C6.74584584 0.56690574 9.08356288 2.45823033 11.6875 5.375 C13.37294048 7.83535952 14.73315904 10.39605927 16.0625 13.0625 C16.41699219 13.73861328 16.77148438 14.41472656 17.13671875 15.11132812 C19.6875 20.06023769 19.6875 20.06023769 19.6875 22.375 C5.64120447 23.21777773 5.64120447 23.21777773 -0.3125 18.375 C-4.54330472 14.25271268 -8.44498551 9.83553338 -12.3125 5.375 C-8.40186583 1.19466692 -5.67355101 0.20402811 0 0 Z " fill="#141717" transform="translate(307.3125,290.625)"/>
<path d="M0 0 C0.87785156 -0.00515625 1.75570313 -0.0103125 2.66015625 -0.015625 C4.9375 0.25 4.9375 0.25 6.9375 2.25 C7.28240322 6.30261287 7.23913882 7.79754176 4.9375 11.25 C4.6637068 13.58698675 4.6637068 13.58698675 4.625 16.1875 C4.16341723 22.82719066 1.75766554 28.28706696 -1.0625 34.25 C-1.7225 33.59 -2.3825 32.93 -3.0625 32.25 C-3.7225 32.91 -4.3825 33.57 -5.0625 34.25 C-6.0525 33.92 -7.0425 33.59 -8.0625 33.25 C-7.4025 32.198125 -6.7425 31.14625 -6.0625 30.0625 C-3.23265705 24.38252849 -3.05193496 18.45420666 -4.0625 12.25 C-6.45795381 9.26753216 -6.45795381 9.26753216 -9.0625 7.25 C-9.0625 4.5625 -9.0625 4.5625 -8.0625 2.25 C-4.81167327 0.08278218 -3.77017847 -0.02221018 0 0 Z " fill="#121515" transform="translate(351.0625,321.75)"/>
<path d="M0 0 C1.99011283 1.57674892 3.4056163 3.00702037 5 5 C4.67 5.66 4.34 6.32 4 7 C2.97519531 6.72285156 1.95039063 6.44570313 0.89453125 6.16015625 C-0.46612331 5.79418709 -1.82680166 5.42830635 -3.1875 5.0625 C-3.86103516 4.88009766 -4.53457031 4.69769531 -5.22851562 4.50976562 C-21.17828233 0.23055992 -38.06639278 0.77117534 -54 5 C-51.11665189 1.81814055 -48.48510509 0.03714052 -44.5625 -1.6875 C-43.63566406 -2.10386719 -42.70882813 -2.52023437 -41.75390625 -2.94921875 C-29.37370079 -7.67301346 -11.22770363 -7.27539465 0 0 Z " fill="#0D1110" transform="translate(315,323)"/>
<path d="M0 0 C2.93022389 2.54802077 4.62688872 4.19428222 5.4140625 8.00390625 C5.60112582 12.484923 4.68126217 15.46073394 2 19 C1 20 1 20 -2.3125 20.375 C-6 20 -6 20 -8.4375 18.1875 C-10.74465894 13.48089576 -10.77579797 9.1455988 -10 4 C-7.45786878 -0.20429394 -4.76646816 -0.9727486 0 0 Z " fill="#F8F9F9" transform="translate(355,191)"/>
<path d="M0 0 C0.79212891 0.00531738 1.58425781 0.01063477 2.40039062 0.01611328 C16.11403047 0.23903047 16.11403047 0.23903047 20.125 4.25 C17.15702842 5.23932386 14.8849389 5.47248175 11.77734375 5.64453125 C-4.07661961 6.62624507 -18.63661373 8.82276456 -33.875 13.25 C-30.72992831 9.70691676 -27.27425901 7.6610589 -23.0625 5.625 C-22.47146484 5.3259375 -21.88042969 5.026875 -21.27148438 4.71875 C-14.13565362 1.20141575 -7.84339305 -0.09431928 0 0 Z " fill="#1D2020" transform="translate(300.875,330.75)"/>
<path d="M0 0 C-2.71454082 2.71454082 -5.76651681 3.16449772 -9.375 4.125 C-18.06304528 6.54384686 -26.3096248 9.79017493 -34.63671875 13.23046875 C-38.04900951 14.63786414 -41.47718607 15.89022824 -45 17 C-41.89524257 13.59085458 -38.48413387 11.25221066 -34.5 9 C-33.88560059 8.65187256 -33.27120117 8.30374512 -32.63818359 7.94506836 C-22.18890404 2.19836826 -11.86910075 -0.24727293 0 0 Z " fill="#2E3030" transform="translate(328,339)"/>
<path d="M0 0 C2.88219576 4.32329364 2.70008057 7.92271667 2 13 C0.60454531 17.13774197 -1.10785118 21.06703353 -3 25 C-3.66 24.34 -4.32 23.68 -5 23 C-5.66 23.66 -6.32 24.32 -7 25 C-7.99 24.67 -8.98 24.34 -10 24 C-9.0409375 22.4221875 -9.0409375 22.4221875 -8.0625 20.8125 C-5.18359537 15.16659162 -5.18994582 9.23022305 -5 3 C-4.34 3.66 -3.68 4.32 -3 5 C-2.01 3.35 -1.02 1.7 0 0 Z " fill="#1F2221" transform="translate(353,331)"/>
<path d="M0 0 C0.99 0.33 1.98 0.66 3 1 C3.04487549 1.54825439 3.08975098 2.09650879 3.13598633 2.66137695 C4.34478905 17.55264891 4.34478905 17.55264891 8 32 C2.29439036 27.03400643 -1.73299202 18.76167125 -2.265625 11.2578125 C-1.66535433 3.33070866 -1.66535433 3.33070866 0 0 Z " fill="#161919" transform="translate(212,276)"/>
<path d="M0 0 C7.10922669 -0.40840238 13.3801301 0.22474685 20 3 C20.66 3.66 21.32 4.32 22 5 C14.74 4.67 7.48 4.34 0 4 C0 2.68 0 1.36 0 0 Z " fill="#252726" transform="translate(362,340)"/>
<path d="M0 0 C1.18239258 0.01353516 1.18239258 0.01353516 2.38867188 0.02734375 C4.32174666 0.05077496 6.2546638 0.08664162 8.1875 0.125 C8.1875 0.785 8.1875 1.445 8.1875 2.125 C7.1975 2.24617188 6.2075 2.36734375 5.1875 2.4921875 C-1.58842337 3.34442941 -8.2301114 4.24431754 -14.8125 6.125 C-14.625 4.25 -14.625 4.25 -13.8125 2.125 C-9.5237502 -0.52319891 -4.8654652 -0.10603696 0 0 Z " fill="#393A39" transform="translate(376.8125,329.875)"/>
<path d="M0 0 C0.33 0.66 0.66 1.32 1 2 C-2.45286663 3.53347116 -5.91307836 5.04959528 -9.375 6.5625 C-10.35984375 7.00013672 -11.3446875 7.43777344 -12.359375 7.88867188 C-13.77089844 8.50258789 -13.77089844 8.50258789 -15.2109375 9.12890625 C-16.51490479 9.70233765 -16.51490479 9.70233765 -17.84521484 10.28735352 C-20 11 -20 11 -22 10 C-19.7516034 8.53914338 -17.50137827 7.08124864 -15.25 5.625 C-14.61578125 5.2125 -13.9815625 4.8 -13.328125 4.375 C-3.99456568 -1.65292373 -3.99456568 -1.65292373 0 0 Z " fill="#222424" transform="translate(305,345)"/>
<path d="M0 0 C0 0.99 0 1.98 0 3 C-6.25461856 5.26616615 -12.45150687 6.83795007 -19 8 C-16.10566319 4.81213375 -13.41353184 2.96686681 -9.5 1.1875 C-8.5615625 0.74792969 -7.623125 0.30835938 -6.65625 -0.14453125 C-3.86758178 -1.04264645 -2.68941917 -1.03390407 0 0 Z " fill="#222222" transform="translate(280,320)"/>
<path d="M0 0 C2.68224106 1.74928764 4.74364061 3.49771452 6.875 5.875 C6.545 6.535 6.215 7.195 5.875 7.875 C0.925 6.555 -4.025 5.235 -9.125 3.875 C-9.125 2.885 -9.125 1.895 -9.125 0.875 C-5.47401828 -0.77663459 -3.84376952 -1.38375703 0 0 Z " fill="#191B1C" transform="translate(313.125,322.125)"/>
<path d="M0 0 C0 0.99 0 1.98 0 3 C-3.41613605 4.85952234 -6.91757822 6.02840764 -10.625 7.1875 C-11.77226562 7.55230469 -12.91953125 7.91710937 -14.1015625 8.29296875 C-17 9 -17 9 -19 8 C-16.87562549 6.68647829 -14.75053408 5.37414287 -12.625 4.0625 C-12.02171875 3.68931641 -11.4184375 3.31613281 -10.796875 2.93164062 C-4.06519886 -1.21955966 -4.06519886 -1.21955966 0 0 Z " fill="#292B2A" transform="translate(286,335)"/>
<path d="M0 0 C4.82630375 0.50840885 7.8601092 1.86958544 11.875 4.5625 C12.84179688 5.20316406 13.80859375 5.84382813 14.8046875 6.50390625 C15.52914063 6.99761719 16.25359375 7.49132812 17 8 C16.67 8.66 16.34 9.32 16 10 C15.05125 9.566875 14.1025 9.13375 13.125 8.6875 C8.54302138 6.71169813 3.79388277 5.36003515 -1 4 C-0.67 2.68 -0.34 1.36 0 0 Z " fill="#1A1D1C" transform="translate(360,349)"/>
<path d="M0 0 C0.33 0 0.66 0 1 0 C1 2.97 1 5.94 1 9 C0.01 9.33 -0.98 9.66 -2 10 C-2.33 12.97 -2.66 15.94 -3 19 C-3.33 19 -3.66 19 -4 19 C-4 13.06 -4 7.12 -4 1 C-2.02 1.99 -2.02 1.99 0 3 C0 2.01 0 1.02 0 0 Z " fill="#06090A" transform="translate(214,268)"/>
<path d="M0 0 C-3.42720007 1.14240002 -5.11054083 0.83197206 -8.625 0.1875 C-10.09839844 -0.06966797 -10.09839844 -0.06966797 -11.6015625 -0.33203125 C-12.39304687 -0.55246094 -13.18453125 -0.77289063 -14 -1 C-14.33 -1.66 -14.66 -2.32 -15 -3 C-9.33265934 -4.96177177 -4.79030451 -3.24050011 0 0 Z " fill="#2D2E2F" transform="translate(391,481)"/>
<path d="M0 0 C2.97 0.495 2.97 0.495 6 1 C6.33 2.65 6.66 4.3 7 6 C1.72 5.67 -3.56 5.34 -9 5 C-9 4.67 -9 4.34 -9 4 C-6.03 4 -3.06 4 0 4 C0 2.68 0 1.36 0 0 Z " fill="#DEDEDF" transform="translate(307,326)"/>
<path d="M0 0 C0.66 0 1.32 0 2 0 C2.696553 1.95513161 3.38199565 3.91422476 4.0625 5.875 C4.44535156 6.96554687 4.82820312 8.05609375 5.22265625 9.1796875 C6 12 6 12 5 14 C3.964031 12.42652824 2.94668268 10.84078454 1.9375 9.25 C1.36902344 8.36828125 0.80054688 7.4865625 0.21484375 6.578125 C-1 4 -1 4 -0.68359375 1.671875 C-0.45800781 1.12015625 -0.23242188 0.5684375 0 0 Z " fill="#1D1E1E" transform="translate(214,294)"/>
<path d="M0 0 C0.825 0.309375 1.65 0.61875 2.5 0.9375 C6.39126155 2.11877583 9.96166953 2.58224168 14 3 C14 3.33 14 3.66 14 4 C7.73 4 1.46 4 -5 4 C-3.68 3.34 -2.36 2.68 -1 2 C-0.67 1.34 -0.34 0.68 0 0 Z " fill="#CED1D2" transform="translate(262,180)"/>
<path d="M0 0 C0.99 0 1.98 0 3 0 C3.33 0.66 3.66 1.32 4 2 C6.32156597 2.40729228 8.6568787 2.74438677 11 3 C7.09971775 5.60018816 3.52565431 5.15085514 -1 5 C-0.67 3.35 -0.34 1.7 0 0 Z " fill="#161817" transform="translate(285,333)"/>
<path d="M0 0 C1.32 0.33 2.64 0.66 4 1 C0 8.57142857 0 8.57142857 -4 11 C-2.7874262 7.27566618 -1.49140021 3.62197194 0 0 Z " fill="#D1D4D5" transform="translate(303,205)"/>
<path d="M0 0 C3.45925163 1.2491742 6.14693203 2.67527795 9 5 C8.67 5.66 8.34 6.32 8 7 C4.38058265 5.49760034 1.2678206 4.17854707 -2 2 C-1.34 2 -0.68 2 0 2 C0 1.34 0 0.68 0 0 Z " fill="#444545" transform="translate(368,352)"/>
<path d="M0 0 C-1.36983503 3.16115776 -1.9890638 3.9927092 -5 6 C-5.66 5.01 -6.32 4.02 -7 3 C-3.375 0 -3.375 0 0 0 Z " fill="#222524" transform="translate(302,292)"/>
<path d="M0 0 C0.66 0 1.32 0 2 0 C2.33 2.64 2.66 5.28 3 8 C1.35 6.35 -0.3 4.7 -2 3 C-1.34 2.67 -0.68 2.34 0 2 C0 1.34 0 0.68 0 0 Z " fill="#212222" transform="translate(247,297)"/>
<path d="M0 0 C3.3 0 6.6 0 10 0 C10 0.66 10 1.32 10 2 C7.25 2.6875 7.25 2.6875 4 3 C2.68 2.01 1.36 1.02 0 0 Z " fill="#272A29" transform="translate(309,341)"/>
<path d="M0 0 C-0.33 0.66 -0.66 1.32 -1 2 C-0.67 2.33 -0.34 2.66 0 3 C-3.75 5 -3.75 5 -6 5 C-5.625 3.0625 -5.625 3.0625 -5 1 C-3 0 -3 0 0 0 Z " fill="#323433" transform="translate(368,331)"/>
<path d="M0 0 C0 0.99 0 1.98 0 3 C-1.65 3 -3.3 3 -5 3 C-5 2.34 -5 1.68 -5 1 C-5.66 0.67 -6.32 0.34 -7 0 C-3.86650268 -1.04449911 -3.01031744 -0.93423645 0 0 Z " fill="#272929" transform="translate(280,320)"/>
<path d="M0 0 C0.99 0.33 1.98 0.66 3 1 C2.071875 2.1446875 2.071875 2.1446875 1.125 3.3125 C-1.05597052 5.99625809 -1.05597052 5.99625809 -3 9 C-3.33 8.34 -3.66 7.68 -4 7 C-3.22265625 5.2734375 -3.22265625 5.2734375 -2.0625 3.375 C-1.381875 2.26125 -0.70125 1.1475 0 0 Z " fill="#1B1C1C" transform="translate(243,235)"/>
<path d="M0 0 C2.125 0.9375 2.125 0.9375 4 2 C4 2.99 4 3.98 4 5 C2.02 4.34 0.04 3.68 -2 3 C-2 2.34 -2 1.68 -2 1 C-1.34 0.67 -0.68 0.34 0 0 Z " fill="#212323" transform="translate(315,325)"/>
<path d="M0 0 C0.33 0 0.66 0 1 0 C1.33 3.63 1.66 7.26 2 11 C0.68 10.01 -0.64 9.02 -2 8 C-2 7.34 -2 6.68 -2 6 C-1.34 6 -0.68 6 0 6 C0 4.02 0 2.04 0 0 Z " fill="#2E3130" transform="translate(350,302)"/>
</svg>
